<?xml version="1.0" encoding="utf-8"?>
<svg version="1.1" id="Layer_1"
xmlns="http://www.w3.org/2000/svg"
xmlns:xlink="http://www.w3.org/1999/xlink"
width="276px" height="47px"
xml:space="preserve">
<g id="49" transform="matrix(1, 0, 0, 1, 137.7, 23.45)">
<path style="fill:#330000;fill-opacity:1" d="M33.8,-14.45Q32.05 -12.2 32.55 -6.15L24 -5.95L24 -8.6Q24 -22.1 33.8 -23.2L37.8 -23.4Q44.85 -23.4 47.5 -20.6Q55.1 -16.5 55.1 -2.15L54.95 1.3Q54.25 18.75 51.8 20.75Q49.1 23.35 45.95 23.35L44 23.2Q39.75 22.4 38.2 19.35Q36.7 16.25 37.3 13.45Q37.9 10.65 39.95 9.45Q41.95 8.25 46 9.45Q47.5 -4.85 46 -9.7Q44.45 -14.55 40 -15.6Q35.55 -16.75 33.8 -14.45M9.85,-23L9.4 7.7Q12.45 6.9 15.1 8.65Q17.7 10.4 18.45 15.25L18.6 16.85Q18.6 20.55 16.35 21.6Q13.3 23.1 9.7 23.1L8.1 23.05Q3.1 22.7 1.55 18.8Q0.4 15.7 0.4 -2.3L0.55 -23L9.85 -23M79.6,-23.25Q92.1 -22.85 95.25 -12.5Q96.7 -9.7 97.3 -3.45L97.6 4.1Q97.6 11.1 96.7 23.05L87.05 22.95Q88.1 9.8 84.85 5.95Q81.5 2.15 77.95 2.9Q74.4 3.65 73.15 6Q71.85 8.4 72.05 10.75Q75.2 8.7 78.2 11Q81.1 13.35 81.15 16.8Q81.25 20.3 78.55 21.95Q76.9 23.15 74.35 23.4L72.3 23.45Q69.2 23.15 66.95 20.45Q64.7 17.7 64.2 11.85Q63.65 6.05 66.9 0.65Q70.1 -4.8 77.95 -5.05Q85.8 -5.35 88.95 1.15Q88.1 -13.1 81.8 -14.55Q75.45 -16 73 -13.15Q70.45 -10.3 70.9 -5.75L62.05 -5.35Q62.5 -14.65 66.7 -19.05Q70 -22.45 74.8 -23.15L78.8 -23.25L79.6 -23.25M119.15,-23.2L121.5 -23.15Q128.2 -22.5 132.25 -18.6Q136.35 -14.75 137.2 -8.55Q137.7 -4.95 137.7 3L137.25 23.1L127.85 22.6Q129.6 -2.65 127.8 -8.55Q125.95 -14.5 120.8 -14.95Q115.55 -15.4 113.95 -11.6Q112.3 -7.85 112.75 -5.1L103.15 -5.5Q104.4 -18.1 109.2 -20.15Q113.95 -23.2 119.15 -23.2M45.5,15.25Q44.85 14.8 44.6 14.8Q44.2 14.8 43.7 15.35L43.25 16.15L43.4 16.4L44.3 16.7L45.05 16.55L45.7 15.6L45.5 15.25M73.15,16.35Q72.75 16.9 72.8 17.1L72.95 17.3L73.8 17.6L74.7 17.35L75.2 16.45L74.85 15.95L74.1 15.6Q73.65 15.65 73.15 16.35M11.55,14.7Q11 14.25 10.65 14.25Q10.25 14.25 9.75 14.8Q9.3 15.35 9.3 15.6L9.45 15.8Q10 16.2 10.4 16.2L11.15 16L11.8 15.05L11.55 14.7M-136.1,-19.5Q-133.9 -22.6 -129.4 -22.85Q-124.95 -23.05 -121.7 -19.4Q-118.4 -15.8 -119.6 -6Q-117.15 -9.45 -112.4 -10.75Q-115.6 -12.9 -115.15 -17.05Q-114.6 -21.15 -110.2 -22.75L-106.75 -23.25Q-104.5 -23.25 -102.2 -22.2Q-97.8 -20.35 -97.7 -15.5L-97.7 -15.25Q-97.7 -10.65 -103.25 -9.1Q-102.35 -9.2 -100.45 -7Q-98.3 -4.55 -99.6 22.85L-108.5 23Q-107.75 1.35 -107.85 -1.45Q-107.95 -4.3 -108.85 -5.05Q-113.6 -3.25 -119.65 1.35L-120.55 23.1L-129.85 22.2L-128.1 -8.25Q-131.85 -7.45 -134.1 -8.75Q-136.35 -10 -137.35 -13.15Q-137.7 -14.1 -137.7 -15.25Q-137.7 -17.35 -136.1 -19.5M-127.1,-15.4L-127.25 -15.75L-128.2 -16.2L-129.05 -15.6L-129.6 -14.85L-129.4 -14.6Q-128.9 -14.25 -128.5 -14.25L-127.7 -14.45Q-127.1 -15.05 -127.1 -15.4M-104.7,-15.95L-104.9 -16.3L-105.85 -16.75L-106.7 -16.2L-107.25 -15.4L-107.05 -15.15Q-106.55 -14.75 -106.1 -14.75L-105.35 -15Q-104.7 -15.6 -104.7 -15.95M-82.55,-23.05Q-79.55 -23.05 -76.4 -21.4Q-73.85 -20.1 -73.05 -16.4Q-72.25 -12.8 -73.05 -0.5Q-66.95 1.8 -62.45 13L-61.95 -22.8L-52.2 -22.5L-53.5 23.35L-64.9 22.85Q-68.95 12.45 -73.35 8.35L-73.9 23Q-87.15 22.75 -89 18.6Q-90.5 15.2 -90.5 11.6L-90.2 7.6Q-89.2 1.25 -81.05 -0.85L-80.65 -10.9Q-83.2 -8.7 -86.8 -10.3Q-90.4 -11.95 -90.5 -14.95L-90.5 -15.35Q-90.5 -17.9 -89 -20.15Q-87.3 -22.75 -83.65 -22.95L-82.55 -23.05M-82.15,-17.1Q-82.75 -17.55 -83.1 -17.55L-83.95 -17L-84.45 -16.2L-84.3 -15.95Q-83.8 -15.55 -83.4 -15.55L-82.6 -15.75Q-81.9 -16.35 -81.9 -16.7L-82.15 -17.1M-31.5,-15.05Q-35.65 -13.25 -35.9 -8.35Q-36 -6.2 -35.45 -1.65Q-35.45 -5.35 -31.95 -7.15Q-27.4 -9.35 -23.65 -6.5Q-19.85 -3.6 -20.6 0.2Q-21.3 3.95 -29.55 23.2L-38.6 23.1Q-44.05 0.5 -44.05 -8.55L-43.75 -12.7Q-42.15 -20.1 -33.55 -22.4Q-29.6 -23.45 -26.35 -23.45Q-21.15 -23.45 -16.25 -21.15Q-8.05 -17.2 -8.05 -6.2L-8.05 -6.1Q-8.1 3.3 -8.5 22.85L-17.55 22.6L-16.7 -0.55Q-16.15 -12.9 -21.7 -14.85Q-27.3 -16.8 -31.5 -15.05M-27.15,-1.45L-27.35 -1.8L-28.3 -2.25Q-28.65 -2.25 -29.15 -1.7L-29.65 -0.9L-29.5 -0.65Q-29 -0.3 -28.6 -0.3L-27.8 -0.5Q-27.15 -1.1 -27.15 -1.45M-81.05,6.9Q-83.45 7.15 -83.6 10.7Q-83.8 14.25 -81.4 14.4L-81.05 6.9" />
</g>
</svg>
