<?xml version="1.0" encoding="utf-8"?>
<svg version="1.1" id="Layer_1"
xmlns="http://www.w3.org/2000/svg"
xmlns:xlink="http://www.w3.org/1999/xlink"
width="222px" height="83px"
xml:space="preserve">
<g id="44" transform="matrix(1, 0, 0, 1, 110.9, 41.15)">
<linearGradient
id="LinearGradID_40" gradientUnits="userSpaceOnUse" gradientTransform="matrix(0, 0.0233765, -0.0283203, 0, 91.75, 17.95)" spreadMethod ="pad" x1="-819.2" y1="0" x2="819.2" y2="0" >
<stop  offset="0" style="stop-color:#D9F163;stop-opacity:1" />
<stop  offset="1" style="stop-color:#3FB421;stop-opacity:1" />
</linearGradient>
<path style="fill:url(#LinearGradID_40) " d="M110.9,-4.7L109.6 41.15L98.2 40.65Q94.15 30.25 89.75 26.15L89.2 40.8Q75.95 40.55 74.1 36.4Q72.6 33 72.6 29.4Q72.6 27.4 72.9 25.4Q73.9 19.05 82.05 16.95L82.45 6.9Q79.9 9.1 76.3 7.5Q72.7 5.85 72.6 2.85L72.6 2.45Q72.6 -0.1 74.1 -2.35Q75.8 -4.95 79.45 -5.15L80.55 -5.25Q83.55 -5.25 86.7 -3.6Q89.25 -2.3 90.05 1.4Q90.85 5 90.05 17.3Q96.15 19.6 100.65 30.8L101.15 -5L110.9 -4.7M79.15,0.8L78.65 1.6L78.8 1.85L79.7 2.25L80.5 2.05L81.2 1.1L80.95 0.7Q80.35 0.25 80 0.25Q79.65 0.25 79.15 0.8M82.05,24.7Q79.65 24.95 79.5 28.5Q79.3 32.05 81.7 32.2L82.05 24.7" />
<linearGradient
id="LinearGradID_41" gradientUnits="userSpaceOnUse" gradientTransform="matrix(0, 0.0259399, -0.00756836, 0, -63.2, -13.7)" spreadMethod ="pad" x1="-819.2" y1="0" x2="819.2" y2="0" >
<stop  offset="0" style="stop-color:#D9F163;stop-opacity:1" />
<stop  offset="1" style="stop-color:#3FB421;stop-opacity:1" />
</linearGradient>
<path style="fill:url(#LinearGradID_41) " d="M-59.1,-29.1L-67.7 -28.75L-67.45 -41.15L-58.55 -41.1L-59.1 -29.1" />
<linearGradient
id="LinearGradID_42" gradientUnits="userSpaceOnUse" gradientTransform="matrix(0, 0.0214539, -0.0288696, 0, -70, 17.3)" spreadMethod ="pad" x1="-819.2" y1="0" x2="819.2" y2="0" >
<stop  offset="0" style="stop-color:#D9F163;stop-opacity:1" />
<stop  offset="1" style="stop-color:#3FB421;stop-opacity:1" />
</linearGradient>
<path style="fill:url(#LinearGradID_42) " d="M-56.95,4.15Q-60.45 6.3 -66.95 3.75Q-73.45 1.2 -76.05 3.05Q-78.65 4.8 -79.3 7.95L-57 8.55Q-57.05 34 -59.85 37.25Q-63 40.95 -67.2 40.95L-69.45 40.75Q-74.95 39.6 -75.6 34.35Q-76.25 29.1 -73.25 26.75Q-70.25 24.35 -66.4 26.1L-65.75 16.05L-87.55 15.8Q-87.55 3.95 -83.5 -0.35Q-79.35 -4.65 -74.15 -5.4L-73.2 -5.5Q-68.25 -5.9 -64.35 -3.75Q-61.45 -1.7 -59.45 -6.35L-52.4 -2.55Q-53.45 1.95 -56.95 4.15M-67.8,31.45Q-68.3 31.55 -68.6 32L-69.15 33L-68.95 33.15Q-68.45 33.5 -68 33.45L-67.2 33.2Q-66.6 32.55 -66.7 32.3Q-66.7 32 -67.15 31.65L-67.8 31.45" />
<linearGradient
id="LinearGradID_43" gradientUnits="userSpaceOnUse" gradientTransform="matrix(0, 0.0233765, -0.0283203, 0, -27.8, 17.95)" spreadMethod ="pad" x1="-819.2" y1="0" x2="819.2" y2="0" >
<stop  offset="0" style="stop-color:#D9F163;stop-opacity:1" />
<stop  offset="1" style="stop-color:#3FB421;stop-opacity:1" />
</linearGradient>
<path style="fill:url(#LinearGradID_43) " d="M-45.45,-2.35Q-43.75 -4.95 -40.1 -5.15L-39 -5.25Q-36 -5.25 -32.85 -3.6Q-30.3 -2.3 -29.5 1.4Q-28.7 5 -29.5 17.3Q-23.4 19.6 -18.9 30.8L-18.4 -5L-8.65 -4.7L-9.95 41.15L-21.35 40.65Q-25.4 30.25 -29.8 26.15L-30.35 40.8Q-43.6 40.55 -45.45 36.4Q-46.95 33 -46.95 29.4L-46.65 25.4Q-45.65 19.05 -37.5 16.95L-37.1 6.9Q-39.65 9.1 -43.25 7.5Q-46.85 5.85 -46.95 2.85L-46.95 2.45Q-46.95 -0.1 -45.45 -2.35M-38.35,1.1L-38.6 0.7Q-39.2 0.25 -39.55 0.25L-40.4 0.8L-40.9 1.6L-40.75 1.85Q-40.25 2.25 -39.85 2.25L-39.05 2.05Q-38.35 1.45 -38.35 1.1M-37.5,24.7Q-39.9 24.95 -40.05 28.5Q-40.25 32.05 -37.85 32.2L-37.5 24.7" />
<linearGradient
id="LinearGradID_44" gradientUnits="userSpaceOnUse" gradientTransform="matrix(0, 0.02771, -0.0281372, 0, 9.5, 17.85)" spreadMethod ="pad" x1="-819.2" y1="0" x2="819.2" y2="0" >
<stop  offset="0" style="stop-color:#D9F163;stop-opacity:1" />
<stop  offset="1" style="stop-color:#3FB421;stop-opacity:1" />
</linearGradient>
<path style="fill:url(#LinearGradID_44) " d="M9.85,-5.2L9.4 25.5Q12.45 24.7 15.1 26.45Q17.7 28.2 18.45 33.05L18.6 34.65Q18.6 38.35 16.35 39.4Q13.3 40.9 9.7 40.9L8.1 40.85Q3.1 40.5 1.55 36.6Q0.4 33.5 0.4 15.5L0.55 -5.2L9.85 -5.2M11.55,32.5Q11 32.05 10.65 32.05Q10.25 32.05 9.75 32.6Q9.3 33.15 9.3 33.4L9.45 33.6Q10 34 10.4 34L11.15 33.8L11.8 32.85L11.55 32.5" />
<linearGradient
id="LinearGradID_45" gradientUnits="userSpaceOnUse" gradientTransform="matrix(0, 0.0243835, -0.0283813, 0, 44.6, 17.75)" spreadMethod ="pad" x1="-819.2" y1="0" x2="819.2" y2="0" >
<stop  offset="0" style="stop-color:#D9F163;stop-opacity:1" />
<stop  offset="1" style="stop-color:#3FB421;stop-opacity:1" />
</linearGradient>
<path style="fill:url(#LinearGradID_45) " d="M53.4,-4.9Q61.85 -3.65 63.25 8.75Q64.5 15.95 64.5 24.55L64.6 40.85L54.45 41Q54.7 19.5 53.85 11Q53 2.5 44.1 2.5Q35.1 2.5 33.75 7.55L41.75 7.55L41.55 17.4Q36.5 17.6 36.5 22.75Q36.5 27.9 38.05 40.5L27.55 40.65Q26.75 34.05 26.75 29.55Q26.75 15 33.15 14.6L24.65 14.6Q27.55 -3.5 37.35 -5.05L44.65 -5.5L53.4 -4.9" />
<linearGradient
id="LinearGradID_46" gradientUnits="userSpaceOnUse" gradientTransform="matrix(0, 0.0401611, -0.0126953, 0, -80.85, 7.95)" spreadMethod ="pad" x1="-819.2" y1="0" x2="819.2" y2="0" >
<stop  offset="0" style="stop-color:#D9F163;stop-opacity:1" />
<stop  offset="1" style="stop-color:#3FB421;stop-opacity:1" />
</linearGradient>
<path style="fill:url(#LinearGradID_46) " d="M-77.85,-18.2Q-80.15 -16.55 -81.05 -14.55L-63.2 -13.7Q-65.95 -19 -70.8 -19.4Q-75.6 -19.8 -77.85 -18.2M-66.85,-26.45Q-57.15 -24.4 -52.2 -6.45L-91.25 -8.25Q-88.2 -20.25 -83.4 -23.75Q-78.6 -27.25 -73.55 -27.25L-66.85 -26.45" />
<linearGradient
id="LinearGradID_47" gradientUnits="userSpaceOnUse" gradientTransform="matrix(0, 0.0278931, -0.0281372, 0, -101.8, 17.85)" spreadMethod ="pad" x1="-819.2" y1="0" x2="819.2" y2="0" >
<stop  offset="0" style="stop-color:#D9F163;stop-opacity:1" />
<stop  offset="1" style="stop-color:#3FB421;stop-opacity:1" />
</linearGradient>
<path style="fill:url(#LinearGradID_47) " d="M-101.45,-5.2L-101.9 25.5Q-98.85 24.7 -96.2 26.45Q-93.6 28.2 -92.85 33.05L-92.7 34.65Q-92.7 38.35 -94.95 39.4Q-98 40.9 -101.6 40.9L-103.2 40.85Q-108.2 40.5 -109.75 36.6Q-110.9 33.5 -110.9 15.5L-110.75 -5.2L-101.45 -5.2M-99.5,32.85L-99.75 32.5Q-100.3 32.05 -100.65 32.05Q-101.05 32.05 -101.55 32.6L-102 33.4L-101.85 33.6L-100.9 34L-100.15 33.8L-99.5 32.85" />
</g>
</svg>
