<?xml version="1.0" encoding="utf-8"?>
<svg version="1.1" id="Layer_1"
xmlns="http://www.w3.org/2000/svg"
xmlns:xlink="http://www.w3.org/1999/xlink"
width="89px" height="27px"
xml:space="preserve">
<g id="53" transform="matrix(1, 0, 0, 1, 44.15, 13.3)">
<path style="fill:#FFFFFF;fill-opacity:1" d="M1.5,-1.25Q0.25 -1.25 -0.4 -1.9Q-1.05 -2.5 -1.5 -4L-1.75 -5.6L-1.6 -6.85Q-1.25 -8 -0.35 -8.7Q0.55 -9.35 1.6 -9.55L2.7 -9.7L4.85 -9.35Q6.8 -8.9 7.95 -7.5Q9.15 -6.1 9.05 -4.9Q9 -3.6 8.65 -2.8Q8.3 -1.95 7.4 -1.25Q6.45 -0.6 6.15 0.65Q5.8 1.9 6.15 8.1Q6.6 7.15 7.9 7.5Q9.2 7.9 9.75 8.85Q10.25 9.7 10.25 10.7Q10.25 12.1 9.25 12.6L6.95 13.15L6.65 13.15L4.75 12.9Q3.75 12.55 3.4 11.55Q3.05 10.55 2.9 5.15Q2.75 -0.2 3.65 -1.5L4.2 -2.25Q2.55 -1.25 1.5 -1.25M14.7,-4.35Q16.4 -4.4 17.65 -3.05Q18.9 -1.65 18.45 2.05Q19.4 0.75 21.2 0.25Q20 -0.55 20.15 -2.15Q20.35 -3.7 22.05 -4.3L23.35 -4.5L25.1 -4.1Q26.75 -3.4 26.8 -1.55L26.8 -1.45Q26.8 0.3 24.7 0.9Q25.05 0.85 25.75 1.7Q26.55 2.6 26.05 13.05L22.65 13.1L22.95 3.8Q22.9 2.75 22.55 2.45Q20.75 3.1 18.45 4.9L18.1 13.15L14.55 12.8L15.2 1.25L12.95 1.05Q12.1 0.55 11.7 -0.65Q11.55 -1 11.55 -1.45Q11.55 -2.25 12.15 -3.05Q13 -4.25 14.7 -4.35M14.7,-1.2Q14.9 -1.05 15.05 -1.05L15.35 -1.15L15.6 -1.5L15.55 -1.65L15.2 -1.8Q15.05 -1.8 14.85 -1.6L14.65 -1.3L14.7 -1.2M23.35,-1.8L23.15 -1.5L23.25 -1.4Q23.45 -1.25 23.6 -1.25L23.9 -1.35L24.15 -1.7L24.05 -1.85L23.7 -2L23.35 -1.8M29.6,-1.5Q29.6 -2.45 30.15 -3.3Q30.8 -4.3 32.2 -4.4L32.6 -4.4Q33.75 -4.4 34.95 -3.8Q35.9 -3.3 36.2 -1.9Q36.5 -0.5 36.2 4.15Q38.55 5.05 40.25 9.3L40.45 -4.3L44.15 -4.2L43.65 13.25L39.3 13.05Q37.8 9.1 36.1 7.55L35.9 13.1Q30.85 13 30.15 11.45Q29.6 10.15 29.6 8.75L29.7 7.25Q30.05 4.85 33.15 4.05L33.3 0.2Q32.35 1.05 30.95 0.45Q29.6 -0.2 29.6 -1.35L29.6 -1.5M32.75,-2.15L32.4 -2.3L32.05 -2.1L31.85 -1.8L31.95 -1.7Q32.15 -1.55 32.3 -1.55L32.6 -1.65L32.85 -2L32.75 -2.15M39.4,-13.3L42.75 -13.25L42.55 -8.7L39.25 -8.55L39.4 -13.3M-40.55,-4.4L-40.7 7.3Q-39.55 7 -38.55 7.65Q-37.55 8.3 -37.25 10.15L-37.2 10.75Q-37.2 12.2 -38.05 12.55Q-39.2 13.15 -40.6 13.15L-41.2 13.15Q-43.1 13 -43.7 11.5Q-44.15 10.35 -44.15 3.5L-44.1 -4.4L-40.55 -4.4M-23.4,-13.25L-23.6 -8.7L-26.9 -8.55L-26.75 -13.3L-23.4 -13.25M-30.45,-4.45L-28.95 -4.5L-28.65 -4.5Q-23.85 -4.35 -22.7 -0.4Q-22.1 0.65 -21.9 3.05L-21.8 5.9Q-21.8 8.55 -22.1 13.15L-25.8 13.1Q-25.4 8.1 -26.65 6.6Q-27.9 5.2 -29.25 5.45Q-30.6 5.75 -31.1 6.65Q-31.55 7.55 -31.5 8.45L-29.15 8.55Q-28.05 9.45 -28.05 10.75Q-28 12.1 -29 12.7Q-29.65 13.15 -30.65 13.25L-31.4 13.3Q-32.6 13.15 -33.45 12.15Q-34.3 11.1 -34.5 8.85Q-34.7 6.65 -33.45 4.6Q-32.25 2.55 -29.25 2.45Q-26.25 2.3 -25.05 4.8Q-25.4 -0.6 -27.8 -1.2Q-30.2 -1.75 -31.15 -0.65Q-32.1 0.45 -31.95 2.15L-35.3 2.3Q-35.15 -1.2 -33.55 -2.9Q-32.3 -4.2 -30.45 -4.45M-16.35,-4.6Q-13.9 -4.5 -13 -3.05Q-12.05 -1.6 -12.35 6.45L-11.9 5.85Q-10.95 4.9 -8.6 4.75L-9 -4.45L-5.35 -4.4L-5.05 4.55Q-3.5 4.4 -2.35 5.35Q-1.25 6.4 -1.2 8.3L-1.1 8.95Q-1.1 10.25 -2.25 11.35Q-3.6 12.7 -8.35 13.2L-8.5 7.5Q-9.75 7.55 -10.7 8.5Q-11.7 9.5 -11.7 13.25L-16.05 13.05L-15.7 0.8Q-16.35 1.4 -17.3 1.25Q-18.15 1.1 -18.85 0.25Q-19.6 -0.55 -19.6 -1.7L-19.6 -1.75Q-19.6 -2.9 -18.65 -3.75Q-17.8 -4.55 -16.55 -4.6L-16.35 -4.6M-16.5,-2.15L-16.85 -1.95L-17 -1.65L-16.95 -1.55L-16.6 -1.4L-16.3 -1.5L-16.05 -1.8L-16.15 -1.95Q-16.35 -2.15 -16.5 -2.15M-5,9.85Q-4.05 9.8 -4.15 8.45Q-4.2 7.1 -5.1 7.35L-5 9.85M-40.25,9.8L-40.6 10L-40.75 10.3L-40.7 10.4L-40.35 10.55L-40.05 10.45L-39.8 10.1L-39.9 9.95Q-40.1 9.8 -40.25 9.8M-30.7,10.3L-31.1 10.55L-31.2 10.85L-31.15 10.95L-30.85 11.05L-30.5 10.95L-30.3 10.6L-30.45 10.4L-30.7 10.3M33.15,7Q32.25 7.05 32.2 8.4Q32.15 9.8 33.05 9.85L33.15 7M6.85,10L6.65 10.3L6.75 10.4L7.05 10.55L7.35 10.45L7.6 10.1L7.5 9.95L7.2 9.8L6.85 10" />
</g>
</svg>
