<?xml version="1.0" encoding="utf-8"?>
<svg version="1.1" id="Layer_1"
xmlns="http://www.w3.org/2000/svg"
xmlns:xlink="http://www.w3.org/1999/xlink"
width="72px" height="27px"
xml:space="preserve">
<g id="55" transform="matrix(1, 0, 0, 1, 35.75, 13)">
<path style="fill:#330000;fill-opacity:1" d="M-25.8,-13L-23.25 -12.7Q-19.55 -11.9 -17.65 -5.1L-32.55 -5.75Q-31.4 -10.3 -29.55 -11.65Q-27.75 -13 -25.8 -13M-28.65,-8.15L-21.85 -7.85Q-22.9 -9.85 -24.75 -10Q-26.6 -10.15 -27.45 -9.55L-28.65 -8.15M-32.5,-4.8Q-30.05 -4.7 -29.15 -3.25Q-28.2 -1.8 -28.5 6.25L-28.05 5.65Q-27.1 4.7 -24.75 4.55L-25.15 -4.65L-21.5 -4.6L-21.2 4.35Q-19.65 4.2 -18.5 5.15Q-17.4 6.2 -17.35 8.1L-17.25 8.75Q-17.25 10.05 -18.4 11.15Q-19.75 12.5 -24.5 13L-24.65 7.3Q-25.9 7.35 -26.85 8.3Q-27.85 9.3 -27.85 13.05L-32.2 12.85L-31.85 0.6Q-32.5 1.2 -33.45 1.05Q-34.3 0.9 -35 0.05Q-35.75 -0.75 -35.75 -1.9L-35.75 -1.95Q-35.75 -3.1 -34.8 -3.95Q-33.95 -4.75 -32.7 -4.8L-32.5 -4.8M-32.3,-2.15Q-32.5 -2.35 -32.65 -2.35L-33 -2.15L-33.15 -1.85L-33.1 -1.75L-32.75 -1.6L-32.45 -1.7L-32.2 -2L-32.3 -2.15M-13.15,-4.75Q-12.4 -4.75 -11.55 -4.35L-10.15 -3.2Q-9.6 -2.45 -9.55 0.35Q-9.05 -2.3 -7.4 -3.65Q-6.1 -4.7 -4.35 -4.7L-3.95 -4.65Q-2 -4.5 -1.15 -2.85Q-0.45 -1.4 -0.45 10.95L-0.45 12.85L-3.9 12.85Q-3.8 0.45 -4.1 -0.6Q-4.4 -1.7 -5.75 -1Q-7.1 -0.3 -9.1 4.55L-8.95 12.8L-12.45 12.65L-12.7 0.35Q-13.7 1.05 -14.8 0.6Q-15.95 0.15 -16.15 -0.95L-16.25 -1.7Q-16.25 -2.55 -15.85 -3.25Q-15.25 -4.35 -14 -4.65L-13.15 -4.75M-12.85,-2.15L-13.2 -2.3L-13.55 -2.1L-13.7 -1.8L-13.65 -1.7L-13.3 -1.55L-13 -1.65L-12.75 -2L-12.85 -2.15M-21.25,7.15L-21.15 9.65Q-20.2 9.6 -20.3 8.25Q-20.35 6.9 -21.25 7.15M14.65,0.9L14.85 5.3L14.7 12.95L11.1 12.75Q11.75 3.15 11.05 0.9Q10.4 -1.35 8.4 -1.55Q6.4 -1.7 5.8 -0.25Q5.2 1.2 5.35 2.2L1.7 2.05Q2.2 -2.75 4 -3.5Q5.8 -4.65 7.8 -4.65L8.7 -4.65Q11.2 -4.4 12.75 -2.95Q14.35 -1.45 14.65 0.9M31.5,-4.6L31.8 4.35Q33.35 4.2 34.5 5.15Q35.6 6.2 35.65 8.1L35.75 8.75Q35.75 10.05 34.6 11.15Q33.25 12.5 28.5 13L28.35 7.3Q27.1 7.35 26.15 8.3Q25.15 9.3 25.15 13.05L20.8 12.85L21.15 0.6Q20.5 1.2 19.55 1.05Q18.7 0.9 18 0.05Q17.25 -0.75 17.25 -1.9L17.25 -1.95Q17.25 -3.1 18.2 -3.95Q19.05 -4.75 20.3 -4.8L20.5 -4.8Q22.95 -4.7 23.85 -3.25Q24.8 -1.8 24.5 6.25L24.95 5.65Q25.9 4.7 28.25 4.55L27.85 -4.65L31.5 -4.6M20.35,-2.35Q20.2 -2.35 20 -2.15L19.85 -1.85L19.9 -1.75Q20.1 -1.6 20.25 -1.6L20.55 -1.7L20.8 -2L20.7 -2.15L20.35 -2.35M31.75,7.15L31.85 9.65Q32.8 9.6 32.7 8.25Q32.65 6.9 31.75 7.15" />
</g>
</svg>
