<?xml version="1.0" encoding="utf-8"?>
<svg version="1.1" id="Layer_1"
xmlns="http://www.w3.org/2000/svg"
xmlns:xlink="http://www.w3.org/1999/xlink"
width="87px" height="37px"
xml:space="preserve">
<g id="17" transform="matrix(1, 0, 0, 1, -119.6, -67.8)">
<path style="fill:#FFFFFF;fill-opacity:1" d="M182.4,67.85L182.15 74.05L177.65 74.25L177.8 67.8L182.4 67.85M195.35,83.7Q198.35 83.7 198.85 86Q199.4 88.7 197.5 89.1L199.55 88.6Q200.85 88.2 200.85 84.7L205.4 85.05L205.5 86.45Q205.5 88.95 204.1 90.35Q202.5 92 198.85 92.2L197.85 92.2Q195 92.2 194.2 91.3Q191.95 89.95 191.75 87.05L191.75 86.7Q191.75 83.85 195.1 83.7L195.35 83.7M195.25,86.35Q195.1 86.35 194.85 86.65L194.55 87.05L194.65 87.15L195.1 87.4L195.55 87.3L195.9 86.8L195.75 86.6L195.25 86.35M195.65,93.7Q198.65 93.7 199.15 96Q199.65 98.6 197.9 99L199.85 98.55Q201.15 98.2 201.15 94.7L205.7 95.05L205.8 96.45Q205.8 98.9 204.4 100.35Q202.8 102 199.15 102.15L198.15 102.2Q195.25 102.2 194.5 101.3Q192.25 99.9 192.05 97.05L192.05 96.7Q192.05 93.85 195.4 93.7L195.65 93.7M196.05,96.6L195.55 96.35Q195.35 96.35 195.1 96.65L194.85 97.1L194.95 97.15Q195.2 97.35 195.4 97.35L195.8 97.3L196.15 96.8L196.05 96.6M187.4,104.45L182.15 104.05Q183.5 87.45 181.1 85.6Q178.75 83.8 175.5 84.75Q172.35 85.65 171.85 88.8Q171.35 91.9 171.6 100.25Q171.75 90.5 174.6 89.35Q177.45 88.25 179.85 89.4Q182.2 90.55 181.05 93.9Q179.9 97.2 175.9 95.15Q175.25 98.85 175.25 104.25L168.35 104.25Q167 93.45 167 88.9Q167 87.45 167.15 86.5Q167.7 82.8 172.7 81.2Q175.15 80.1 177.8 80.1Q179.85 80.1 181.6 80.8Q187.25 82.45 187.55 90.05L187.4 104.45M177.7,92.75L178.05 92.25L177.95 92.05L177.5 91.85Q177.3 91.85 177 92.1L176.8 92.55L176.8 92.6L177.35 92.85L177.7 92.75M153.45,80.25Q156.15 80.25 158.7 81.45Q162.95 83.5 162.95 89.2L162.95 89.25L162.7 104.3L158 104.15L158.45 92.1Q158.75 85.7 155.85 84.7Q152.95 83.7 150.8 84.6Q148.6 85.55 148.5 88.1Q148.45 89.2 148.7 91.5Q148.75 89.6 150.55 88.7Q152.9 87.55 154.85 89.05Q156.8 90.55 156.45 92.5Q156.05 94.45 151.8 104.45L147.1 104.4Q144.25 92.7 144.25 87.95Q144.25 86.85 144.4 85.85Q145.25 82 149.7 80.8Q151.75 80.25 153.45 80.25M151.7,91.95L151.8 92.05L152.25 92.25L152.7 92.15L153.05 91.65L152.9 91.5L152.4 91.25L152 91.55L151.7 91.95M130.35,69.05L133.8 69.45Q138.85 70.5 141.4 79.8L121.15 78.9Q122.7 72.65 125.2 70.85Q127.7 69.05 130.35 69.05M126.45,75.65L135.7 76.05Q134.25 73.3 131.75 73.1Q129.25 72.9 128.1 73.75Q126.9 74.6 126.45 75.65M127.65,87.1Q126.3 88.1 124.7 87.65L125.6 100L127.2 91.8L131.6 91.75L134.4 99.4L135.05 80.25L140.15 80.45L139.45 104.4L132.05 104.2L129.75 95.8L128.15 104L121 104.35Q119.6 88.4 119.6 84.6L119.6 83.5Q119.95 81.35 121.4 80.5Q122.4 79.95 123.8 79.95L125.25 80.05Q127.35 80.35 128.3 81.5Q129.25 82.6 129.15 84.4Q129 86.15 127.65 87.1M124.65,83.5Q124.45 83.5 124.2 83.8L123.95 84.2L124.05 84.3L124.55 84.5L124.95 84.4L125.25 83.9L125.15 83.7L124.65 83.5" />
</g>
</svg>
