<?xml version="1.0" encoding="utf-8"?>
<svg version="1.1" id="Layer_1"
xmlns="http://www.w3.org/2000/svg"
xmlns:xlink="http://www.w3.org/1999/xlink"
width="262px" height="41px"
xml:space="preserve">
<g id="58" transform="matrix(1, 0, 0, 1, 6.95, 59.1)">
<path style="fill:#FFFFFF;fill-opacity:1" d="M252.95,-27.95Q251.6 -26.6 246.85 -26.1L246.7 -31.8Q245.45 -31.75 244.5 -30.8Q243.5 -29.8 243.5 -26.05L239.15 -26.25L239.5 -38.5Q238.85 -37.9 237.9 -38.05Q237.05 -38.2 236.35 -39.05Q235.6 -39.85 235.6 -41L235.6 -41.05Q235.6 -42.2 236.55 -43.05Q237.4 -43.85 238.65 -43.9L238.85 -43.9Q241.3 -43.8 242.2 -42.35Q243.15 -40.9 242.85 -32.85L243.3 -33.45Q244.25 -34.4 246.6 -34.55L246.2 -43.75L249.85 -43.7L250.15 -34.75Q251.7 -34.9 252.85 -33.95Q253.95 -32.9 254 -31L254.1 -30.35Q254.1 -29.05 252.95 -27.95M250.1,-31.95L250.2 -29.45Q251.15 -29.5 251.05 -30.85Q251 -32.2 250.1 -31.95M41.05,-48.5Q40.9 -48.5 40.7 -48.3L40.55 -48L40.6 -47.95Q40.8 -47.8 40.95 -47.8L41.25 -47.85L41.45 -48.2L41.4 -48.35L41.05 -48.5M41.25,-50.8Q42.15 -50.8 43.15 -50.1Q44.1 -49.3 44.1 -48.3Q44.1 -47.2 42.75 -45.9Q41.75 -45.4 40.9 -45.4Q39.9 -45.4 38.95 -46.15Q38.05 -46.75 38.05 -47.7Q38.05 -48.55 38.9 -49.15Q40 -50.8 41.25 -50.8M24.7,-43.7L25 -34.75Q26.55 -34.9 27.7 -33.95Q28.8 -32.9 28.85 -31L28.95 -30.35Q28.95 -29.05 27.8 -27.95Q26.45 -26.6 21.7 -26.1L21.55 -31.8Q20.3 -31.75 19.35 -30.8Q18.35 -29.8 18.35 -26.05L14 -26.25L14.35 -38.5Q13.7 -37.9 12.75 -38.05Q11.9 -38.2 11.2 -39.05Q10.45 -39.85 10.45 -41L10.45 -41.05Q10.45 -42.2 11.4 -43.05Q12.25 -43.85 13.5 -43.9L13.7 -43.9Q16.15 -43.8 17.05 -42.35Q18 -40.9 17.7 -32.85L18.15 -33.45Q19.1 -34.4 21.45 -34.55L21.05 -43.75L24.7 -43.7M5.65,-41L5.55 -41.15L5.2 -41.3L4.85 -41.1L4.65 -40.8L4.75 -40.7Q4.95 -40.55 5.1 -40.55L5.4 -40.65L5.65 -41M7.25,-37.6Q8.05 -36.7 7.55 -26.25L4.15 -26.2L4.45 -35.5Q4.4 -36.55 4.05 -36.85Q2.25 -36.2 -0.05 -34.4L-0.4 -26.15L-3.95 -26.5L-3.3 -38.05L-5.55 -38.25Q-6.4 -38.75 -6.8 -39.95L-6.95 -40.75Q-6.95 -41.55 -6.35 -42.35Q-5.5 -43.55 -3.8 -43.65Q-2.1 -43.7 -0.85 -42.35Q0.4 -40.95 -0.05 -37.25Q0.9 -38.55 2.7 -39.05Q1.5 -39.85 1.65 -41.45Q1.85 -43 3.55 -43.6L4.85 -43.8L6.6 -43.4Q8.25 -42.7 8.3 -40.85L8.3 -40.75Q8.3 -39 6.2 -38.4L7.25 -37.6M14,-41.1L13.9 -41.25L13.55 -41.45Q13.4 -41.45 13.2 -41.25L13.05 -40.95L13.1 -40.85L13.45 -40.7L13.75 -40.8L14 -41.1M18.1,-25.7L19.6 -26L20.25 -25.95Q21.55 -25.85 22.15 -24.8Q22.75 -23.75 22.55 -21.15L23.85 -21.25L23.8 -25.6L27.1 -25.6L27.05 -18.65L19.85 -18.6L19.85 -21.25L17.9 -21.05Q17.05 -21.4 16.85 -22.3Q16.7 -22.85 16.7 -23.3L16.9 -24.35Q17.2 -25.35 18.1 -25.7M25.05,-29.45Q26 -29.5 25.9 -30.85Q25.85 -32.2 24.95 -31.95L25.05 -29.45M42.35,-43.75Q44.3 -43.6 45.15 -41.95Q45.85 -40.5 45.85 -28.15L45.85 -26.25L42.4 -26.25Q42.5 -38.65 42.2 -39.7Q41.9 -40.8 40.55 -40.1Q39.2 -39.4 37.2 -34.55L37.35 -26.3L33.85 -26.45L33.6 -38.75Q32.6 -38.05 31.5 -38.5Q30.35 -38.95 30.15 -40.05L30.05 -40.8Q30.05 -41.65 30.45 -42.35Q31.05 -43.45 32.3 -43.75L33.15 -43.85L34.75 -43.45Q35.65 -43 36.15 -42.3Q36.7 -41.55 36.75 -38.75Q37.25 -41.4 38.9 -42.75Q40.2 -43.8 41.95 -43.8L42.35 -43.75M33.45,-41.25L33.1 -41.4L32.75 -41.2L32.6 -40.9L32.65 -40.8Q32.85 -40.65 33 -40.65L33.3 -40.75L33.55 -41.1L33.45 -41.25M85.3,-57.75Q85.75 -56.6 85.65 -55.6Q85.6 -54.95 85.15 -54.75Q87.15 -54.95 87.65 -55.65Q88.2 -56.4 88.3 -58.25L91.85 -58.15Q90.9 -54.05 89.3 -53.25Q87.65 -52.4 86.15 -52.2L83.4 -52L83.2 -52L80.8 -52.3L81.05 -54.7L82.2 -54.7L81.8 -54.9Q80.75 -55.55 80.75 -56.85L80.75 -56.9Q80.75 -58.25 81.7 -58.75Q82.3 -59.1 83 -59.1L83.75 -59.05Q84.85 -58.85 85.3 -57.75M83.3,-57.1L83 -57.25L82.65 -57.1L82.6 -56.95L82.7 -56.75L82.85 -56.55L83.15 -56.6L83.4 -56.95L83.3 -57.1M61.05,-38.15L61.25 -33.75L61.05 -26.1L57.5 -26.3Q58.15 -35.9 57.45 -38.15Q56.75 -40.4 54.8 -40.6Q52.8 -40.75 52.2 -39.3Q51.55 -37.9 51.75 -36.85L48.1 -37Q48.55 -41.8 50.4 -42.6Q52.2 -43.7 54.15 -43.7L55.1 -43.7Q57.6 -43.45 59.15 -42Q60.7 -40.5 61.05 -38.15M61.45,-47.1L64.25 -48.3L66 -44.9L67.9 -48.4L71.5 -47.65L70.15 -32.05L71.55 -32L72.95 -31.15Q73.45 -30.5 73.55 -29.4L73.6 -29Q73.6 -28.1 72.85 -27.2Q72.6 -26.45 71 -26.25L70.15 -26.2Q69.05 -26.2 68.45 -26.6Q67.25 -27.25 66.95 -28.55Q66.6 -29.85 68.1 -44.95L67 -41.9L64.55 -41.9L61.45 -47.1M83.45,-37.4Q84.9 -36.3 84.6 -34.85Q84.3 -33.45 81.2 -26.1L77.75 -26.15Q75.65 -34.75 75.65 -38.2L75.8 -39.75Q76.4 -42.6 79.65 -43.45L82.4 -43.85Q84.4 -43.85 86.25 -43Q89.35 -41.5 89.35 -37.3L89.35 -37.25L89.2 -26.25L85.75 -26.35L86.1 -35.15Q86.3 -39.85 84.15 -40.6Q82.05 -41.35 80.45 -40.65Q78.85 -40 78.8 -38.1L78.95 -35.55Q78.95 -37 80.3 -37.65Q82 -38.5 83.45 -37.4M70.55,-28.9L70.85 -28.95L71.1 -29.35L71.05 -29.5L70.65 -29.65L70.35 -29.45L70.15 -29.15L70.2 -29.05Q70.4 -28.9 70.55 -28.9M81.15,-35.3L81.2 -35.2Q81.4 -35.05 81.55 -35.05L81.85 -35.15L82.1 -35.5L82 -35.6L81.65 -35.8Q81.55 -35.8 81.35 -35.6L81.15 -35.3M-3.15,-40.45L-2.9 -40.8L-2.95 -40.95L-3.3 -41.1L-3.65 -40.9L-3.85 -40.6L-3.8 -40.5L-3.45 -40.35L-3.15 -40.45M19.95,-23.45L19.85 -23.55L19.5 -23.75L19.15 -23.55L19 -23.25L19.05 -23.15Q19.2 -23 19.4 -23L19.7 -23.1L19.95 -23.45M183.05,-36.65L182.95 -26.15L179.1 -26.4Q180.05 -38.55 178.3 -39.9Q176.6 -41.25 174.2 -40.55Q171.9 -39.9 171.5 -37.6Q171.15 -35.3 171.35 -29.2Q171.45 -36.35 173.55 -37.15Q175.65 -38 177.4 -37.15Q179.1 -36.3 178.25 -33.85Q177.4 -31.4 174.5 -32.95Q174.05 -30.25 174.05 -26.25L168.95 -26.25Q168 -34.2 168 -37.5L168.1 -39.3Q168.5 -42 172.15 -43.15Q173.95 -43.95 175.9 -43.95L178.7 -43.45Q182.85 -42.25 183.05 -36.65M186.15,-39.15Q186.15 -41.2 188.65 -41.35L188.8 -41.35Q191 -41.35 191.4 -39.65Q191.75 -37.7 190.45 -37.4L191.9 -37.75Q192.8 -38.05 192.8 -40.6L196.15 -40.35L196.25 -39.3Q196.25 -37.5 195.25 -36.45Q194.05 -35.25 191.35 -35.1L190.65 -35.1Q188.55 -35.1 187.95 -35.75Q186.3 -36.75 186.15 -38.85L186.15 -39.15M176,-35.2L175.65 -35.35L175.3 -35.15L175.15 -34.85L175.15 -34.8Q175.4 -34.65 175.55 -34.65L175.85 -34.7L176.1 -35.05L176 -35.2M186.4,-31.8Q186.4 -33.9 188.85 -34L189 -34Q191.25 -34 191.6 -32.3Q191.95 -30.35 190.65 -30.05L192.1 -30.45Q193.05 -30.7 193.05 -33.25L196.4 -33L196.45 -31.95Q196.45 -30.15 195.45 -29.15Q194.25 -27.9 191.6 -27.8L190.85 -27.75Q188.75 -27.75 188.15 -28.45Q186.55 -29.45 186.4 -31.55L186.4 -31.8M203.7,-43.9L203.55 -32.25Q204.7 -32.55 205.7 -31.85Q206.7 -31.2 206.95 -29.35L207.05 -28.75Q207.05 -27.3 206.15 -26.9Q205 -26.35 203.65 -26.35L203.05 -26.35Q201.1 -26.5 200.55 -28Q200.1 -29.15 200.1 -36L200.15 -43.9L203.7 -43.9M189.1,-39.2L188.75 -39.4L188.4 -39.15L188.2 -38.85L188.3 -38.8Q188.5 -38.65 188.65 -38.65L188.95 -38.7L189.2 -39.05L189.1 -39.2M189.3,-31.9L188.95 -32.05L188.65 -31.8L188.45 -31.5L188.5 -31.45Q188.7 -31.3 188.85 -31.3L189.15 -31.35L189.4 -31.75L189.3 -31.9M204.45,-29.4L204.35 -29.55Q204.15 -29.75 204 -29.75L203.65 -29.5L203.5 -29.2L203.55 -29.15Q203.75 -29 203.9 -29L204.2 -29.05L204.45 -29.4M219.4,-43.9Q221.85 -43.8 222.75 -42.35Q223.7 -40.9 223.4 -32.85L223.85 -33.45Q224.8 -34.4 227.15 -34.55L226.75 -43.75L230.4 -43.7L230.7 -34.75Q232.25 -34.9 233.4 -33.95Q234.5 -32.9 234.55 -31L234.65 -30.35Q234.65 -29.05 233.5 -27.95Q232.15 -26.6 227.4 -26.1L227.25 -31.8Q226 -31.75 225.05 -30.8Q224.05 -29.8 224.05 -26.05L219.7 -26.25L220.05 -38.5Q219.4 -37.9 218.45 -38.05Q217.6 -38.2 216.9 -39.05Q216.15 -39.85 216.15 -41L216.15 -41.05Q216.15 -42.2 217.1 -43.05Q217.95 -43.85 219.2 -43.9L219.4 -43.9M219.45,-40.8L219.7 -41.1L219.6 -41.25L219.25 -41.45Q219.1 -41.45 218.9 -41.25L218.75 -40.95L218.8 -40.85Q219 -40.7 219.15 -40.7L219.45 -40.8M211.35,-43.75L211.05 -31.9Q212.2 -32.2 213.2 -31.5Q214.2 -30.85 214.45 -29L214.55 -28.4Q214.55 -27 213.7 -26.6Q212.55 -26 211.15 -26L210.55 -26.05Q208.6 -26.15 208.05 -27.65Q207.6 -28.85 207.6 -35.7L207.65 -43.4L211.35 -43.75M211.95,-29.1L211.85 -29.2L211.5 -29.4L211.2 -29.2L211 -28.9L211.05 -28.8Q211.25 -28.65 211.4 -28.65L211.7 -28.75L211.95 -29.1M238.6,-40.7L238.9 -40.8L239.15 -41.1L239.05 -41.25L238.7 -41.45L238.35 -41.25L238.2 -40.95L238.25 -40.85L238.6 -40.7M230.65,-31.95L230.75 -29.45Q231.7 -29.5 231.6 -30.85Q231.55 -32.2 230.65 -31.95" />
</g>
</svg>
