<?xml version="1.0" encoding="utf-8"?>
<svg version="1.1" id="Layer_1"
xmlns="http://www.w3.org/2000/svg"
xmlns:xlink="http://www.w3.org/1999/xlink"
width="87px" height="45px"
xml:space="preserve">
<g id="15" transform="matrix(1, 0, 0, 1, -120.6, -82.15)">
<path style="fill:#FFFFFF;fill-opacity:1" d="M120.85,97Q123.75 92.65 129.8 92.6L129.9 92.6Q135.8 92.75 137.9 97.6Q139 99.55 139 105.85Q139 110 138.4 116.65L133.8 116.45L134.1 105.25Q134.2 97.45 130.55 96.6Q126.85 95.7 124.35 98.15L130.2 99.25L129.9 102.9Q125.5 102.9 125.2 104.75Q124.85 106.5 125.05 109.95L126.8 109.85Q129.05 110.05 129.75 111.5Q130.45 112.9 130 114.65Q129.55 116.45 127.3 116.7L126 116.8L123.95 116.45Q122.1 115.8 121.6 113.75Q121.05 111.75 121.05 107.4Q121.05 103 122.2 101.95Q123.3 100.85 126 100.95L120.6 100.6L120.85 97M125.9,117.35L127.95 116.95L128.8 117Q130.6 117.15 131.4 118.6Q132.2 120 131.95 123.6L133.7 123.45L133.65 117.5L138.15 117.5L138.1 127L128.25 127.05L128.3 123.45Q126.8 124.2 125.65 123.7Q124.45 123.25 124.15 122L124 120.6L124.25 119.2Q124.65 117.85 125.9 117.35M126.4,113.8L126.8 113.75L127.15 113.25L127 113.05L126.55 112.8Q126.35 112.8 126.1 113.1L125.85 113.55L125.95 113.6Q126.15 113.8 126.4 113.8M153.55,92.65L158.1 93Q162.45 93.65 163.2 100.05Q163.85 103.8 163.85 108.25L163.9 116.7L158.65 116.8Q158.75 105.65 158.3 101.2Q157.85 96.85 153.25 96.85Q148.6 96.85 147.9 99.45L152.05 99.45L151.9 104.55Q149.3 104.65 149.3 107.3Q149.3 110 150.1 116.55L144.65 116.65Q144.25 113.2 144.25 110.85Q144.25 103.35 147.55 103.1L143.15 103.1Q144.65 93.7 149.75 92.9L153.55 92.65M128.4,120.45L128.25 120.25L127.8 120.05Q127.6 120.05 127.35 120.3L127.1 120.75L127.2 120.8L127.65 121.05L128.05 120.95L128.4 120.45M196.7,96.05Q199.7 96.05 200.2 98.35Q200.75 101.05 198.85 101.45L200.9 100.95Q202.2 100.55 202.2 97.05L206.75 97.4L206.85 98.8Q206.85 101.3 205.45 102.7Q203.85 104.35 200.2 104.55L199.2 104.55Q196.35 104.55 195.55 103.65Q193.3 102.3 193.1 99.4L193.1 99.05Q193.1 96.2 196.45 96.05L196.7 96.05M182.95,93.15Q188.6 94.8 188.9 102.4L188.75 116.8L183.5 116.4Q184.85 99.8 182.45 97.95Q180.1 96.15 176.85 97.1Q173.7 98 173.2 101.15Q172.7 104.25 172.95 112.6Q173.1 102.85 175.95 101.7Q178.8 100.6 181.2 101.75Q183.55 102.9 182.4 106.25Q181.25 109.55 177.25 107.5Q176.6 111.2 176.6 116.6L169.7 116.6Q168.35 105.8 168.35 101.25Q168.35 99.8 168.5 98.85Q169.05 95.15 174.05 93.55Q176.5 92.45 179.15 92.45Q181.2 92.45 182.95 93.15M179.6,88.6L179.75 82.15L184.35 82.2L184.1 88.4L179.6 88.6M178.15,104.95Q178.45 105.2 178.7 105.2L179.05 105.1L179.4 104.6L179.3 104.4L178.85 104.2L178.35 104.45L178.15 104.9L178.15 104.95M197.4,108.95L196.9 108.7Q196.7 108.7 196.45 109L196.2 109.45L196.3 109.5Q196.55 109.7 196.75 109.7L197.15 109.65L197.5 109.15L197.4 108.95M207.15,108.8Q207.15 111.25 205.75 112.7Q204.15 114.35 200.5 114.5L199.5 114.55Q196.6 114.55 195.85 113.65Q193.6 112.25 193.4 109.4L193.4 109.05Q193.4 106.2 196.75 106.05L197 106.05Q200 106.05 200.5 108.35Q201 110.95 199.25 111.35L201.2 110.9Q202.5 110.55 202.5 107.05L207.05 107.4L207.15 108.8M196.2,99L195.9 99.4L196 99.5L196.45 99.75L196.9 99.65L197.25 99.15L197.1 98.95L196.6 98.7Q196.45 98.7 196.2 99" />
</g>
</svg>
