<?xml version="1.0" encoding="utf-8"?>
<svg version="1.1" id="Layer_1"
xmlns="http://www.w3.org/2000/svg"
xmlns:xlink="http://www.w3.org/1999/xlink"
width="133px" height="25px"
xml:space="preserve">
<g id="51" transform="matrix(1, 0, 0, 1, 66.25, 12.4)">
<path style="fill:#FFFFFF;fill-opacity:1" d="M9.65,-5.3L10.6 -5.3Q13.1 -5.05 14.65 -3.6Q16.2 -2.1 16.55 0.25L16.75 4.65L16.55 12.3L13 12.1Q13.65 2.5 12.95 0.25Q12.25 -2 10.3 -2.2Q8.3 -2.35 7.7 -0.9Q7.05 0.5 7.25 1.55L3.6 1.4Q4.05 -3.4 5.9 -4.2Q7.7 -5.3 9.65 -5.3M26.6,-5.45Q30.95 -5.4 32.5 -1.8Q33.3 -0.35 33.3 4.25L32.85 12.2L29.5 12L29.7 3.85Q29.8 -1.9 27.1 -2.55Q24.4 -3.2 22.55 -1.4L26.85 -0.6L26.65 2.1Q23.4 2.1 23.2 3.45Q22.95 4.75 23.1 7.25L24.35 7.2Q26 7.35 26.5 8.4Q27.05 9.45 26.7 10.7Q26.35 12.05 24.75 12.2L23.8 12.25L22.25 12Q20.95 11.55 20.55 10.05Q20.15 8.6 20.15 5.4Q20.15 2.15 20.95 1.4Q21.8 0.6 23.8 0.65L19.8 0.4L20 -2.25Q22.1 -5.45 26.55 -5.45L26.6 -5.45M42.5,-5.35Q45 -5.1 46.55 -3.65Q48.15 -2.15 48.45 0.2L48.65 4.6L48.5 12.25L44.9 12.05Q45.55 2.45 44.85 0.2Q44.2 -2.05 42.2 -2.25Q40.2 -2.4 39.6 -0.95Q39 0.5 39.15 1.5L35.5 1.35Q36 -3.45 37.8 -4.2Q39.6 -5.35 41.6 -5.35L42.5 -5.35M54.7,-5.3Q55.85 -5.3 57.05 -4.7Q58 -4.2 58.3 -2.8Q58.6 -1.4 58.3 3.25Q60.65 4.15 62.35 8.4L62.55 -5.2L66.25 -5.1L65.75 12.35L61.4 12.15Q59.9 8.2 58.2 6.65L58 12.2Q52.95 12.1 52.25 10.55Q51.7 9.25 51.7 7.85L51.8 6.35Q52.15 3.95 55.25 3.15L55.4 -0.7Q54.45 0.15 53.05 -0.45Q51.7 -1.1 51.7 -2.25L51.7 -2.4Q51.7 -3.35 52.25 -4.2Q52.9 -5.2 54.3 -5.3L54.7 -5.3M54.7,-2.55L54.95 -2.9L54.85 -3.05L54.5 -3.2L54.15 -3L53.95 -2.7L54.05 -2.6L54.4 -2.45L54.7 -2.55M54.3,7.5Q54.25 8.9 55.15 8.95L55.25 6.1Q54.35 6.15 54.3 7.5M24.35,10.05L24.6 9.65L24.5 9.5L24.15 9.35L23.85 9.6L23.65 9.9L23.7 9.95L24.05 10.1L24.35 10.05M1.15,12.25L-2.7 12Q-1.75 -0.15 -3.5 -1.5Q-5.2 -2.85 -7.6 -2.15Q-9.9 -1.5 -10.3 0.8Q-10.65 3.1 -10.45 9.2Q-10.35 2.05 -8.25 1.25Q-6.15 0.4 -4.4 1.25Q-2.7 2.1 -3.55 4.55Q-4.4 7 -7.3 5.45Q-7.75 8.15 -7.75 12.15L-12.85 12.15Q-13.8 4.2 -13.8 0.9L-13.7 -0.9Q-13.3 -3.6 -9.65 -4.75Q-7.85 -5.55 -5.9 -5.55L-3.1 -5.05Q1.05 -3.85 1.25 1.75L1.15 12.25M-61.5,-5.35L-61.3 -5.35Q-59.2 -5.35 -59.05 -3.35Q-58.85 -5.3 -57 -5.3L-55.2 -4.85Q-52.1 -3.35 -52.1 1.15L-52.1 1.2L-52.25 12.25L-55.7 12.1L-55.35 3.3Q-54.95 -1.35 -56.15 -2.1Q-57.3 -2.9 -57.55 -0.5L-60.5 -0.8Q-60.75 -2.7 -62 -2.1Q-63.2 -1.5 -63.25 0.35Q-63.25 2.15 -62.05 9L-60.5 6.1Q-62.35 6.3 -62.75 4.25Q-63.15 2.25 -61.45 1.4Q-59.75 0.55 -58.3 1.65Q-56.85 2.75 -57.15 4.2Q-57.45 5.65 -60.75 12.3L-64.4 12.25Q-66.25 3.65 -66.25 -0.1L-66.1 -1.65Q-65.55 -4.5 -61.5 -5.35M-43.05,-5.8Q-41.7 -5.8 -39.95 -5Q-37.25 -4.4 -35.9 -1.55Q-35.1 0.2 -35.1 4.85Q-35.1 7.6 -35.45 12.05L-47.8 12.15Q-47.2 1.55 -45.95 0.75Q-44.7 -0.05 -42.95 0.35Q-41.15 0.75 -40.9 1.95Q-40.65 3.2 -41.25 4.55Q-41.85 5.95 -44.1 5.45L-44.35 9.1L-38.8 9.1Q-38.3 1.7 -38.95 0.3Q-39.6 -1.1 -40.6 -1.85Q-41.55 -2.6 -43.4 -2.5Q-45.2 -2.4 -46.4 0.3L-49.95 -0.35Q-48.85 -4.25 -46 -5.25L-43.05 -5.8M-32.45,-2.25L-32.35 -3.25Q-32.05 -4.5 -30.8 -4.9L-29.75 -5.05L-27.5 -4.5Q-25.95 -3.8 -26.25 -0.45L-26.1 9.05L-20.65 9.3L-20.7 -4.3L-17.1 -4.3L-17.05 12.45L-31.25 12.1L-31.2 8.75L-29.7 8.8L-29.75 0.55Q-31.7 0.6 -32.2 -1.05L-32.45 -2.25M-30.1,-1.9L-29.7 -1.75L-29.45 -1.8L-29.15 -2.2L-29.25 -2.35L-29.6 -2.5L-29.95 -2.25L-30.15 -1.95L-30.1 -1.9M-0.4,-9.9Q-0.4 -8.8 -1.75 -7.5Q-2.75 -7 -3.6 -7Q-4.6 -7 -5.55 -7.75Q-6.45 -8.35 -6.45 -9.3Q-6.45 -10.15 -5.6 -10.75Q-4.5 -12.4 -3.25 -12.4Q-2.35 -12.4 -1.35 -11.7Q-0.4 -10.9 -0.4 -9.9M-3.45,-10.1L-3.8 -9.9L-3.95 -9.6L-3.9 -9.55L-3.55 -9.4L-3.25 -9.45L-3.05 -9.8L-3.1 -9.95L-3.45 -10.1M-6.15,3.05L-6.5 3.25L-6.65 3.55L-6.65 3.6L-6.25 3.75L-5.95 3.7L-5.7 3.35L-5.8 3.2Q-6.05 3.05 -6.15 3.05M-43.25,2.75L-43.6 2.55L-43.95 2.8L-44.15 3.1L-44.05 3.15L-43.7 3.3L-43.4 3.25L-43.2 2.85L-43.25 2.75M-60.4,3.45L-60.6 3.75L-60.55 3.85L-60.2 4L-59.9 3.95L-59.65 3.55L-59.75 3.4L-60.1 3.25L-60.4 3.45" />
</g>
</svg>
